<?xml version="1.0" encoding="utf-8"?>
<!-- Generator: Adobe Illustrator 16.0.0, SVG Export Plug-In . SVG Version: 6.00 Build 0)  -->
<!DOCTYPE svg PUBLIC "-//W3C//DTD SVG 1.1//EN" "http://www.w3.org/Graphics/SVG/1.1/DTD/svg11.dtd">
<svg version="1.1" id="Layer_1" xmlns="http://www.w3.org/2000/svg" xmlns:xlink="http://www.w3.org/1999/xlink" x="0px" y="0px"
	 width="783px" height="377.981px" viewBox="0 0 783 377.981" enable-background="new 0 0 783 377.981" xml:space="preserve">
<g display="none" opacity="0.8">
	<g display="inline">
		<path d="M-24.26,635.235c0.041,0.763,0.214,1.382,0.52,1.857c0.581,0.892,1.606,1.336,3.075,1.336
			c0.658,0,1.257-0.098,1.797-0.293c1.045-0.379,1.569-1.056,1.569-2.031c0-0.731-0.222-1.253-0.665-1.564
			c-0.449-0.305-1.152-0.57-2.109-0.795l-1.764-0.412c-1.152-0.268-1.967-0.563-2.445-0.887c-0.828-0.563-1.241-1.4-1.241-2.517
			c0-1.208,0.407-2.198,1.219-2.974c0.813-0.773,1.965-1.16,3.455-1.16c1.371,0,2.536,0.339,3.494,1.02
			c0.958,0.68,1.438,1.767,1.438,3.261h-1.71c-0.087-0.719-0.275-1.271-0.562-1.655c-0.532-0.701-1.436-1.052-2.709-1.052
			c-1.03,0-1.77,0.225-2.22,0.676c-0.45,0.452-0.675,0.976-0.675,1.575c0,0.658,0.266,1.139,0.798,1.443
			c0.349,0.196,1.138,0.44,2.367,0.733l1.826,0.43c0.88,0.207,1.561,0.49,2.039,0.85c0.827,0.628,1.241,1.541,1.241,2.735
			c0,1.488-0.528,2.553-1.584,3.193c-1.056,0.641-2.282,0.961-3.68,0.961c-1.63,0-2.906-0.428-3.827-1.281
			c-0.922-0.848-1.375-1.997-1.356-3.449H-24.26z"/>
		<path d="M-12.487,627.039h1.665v2.735h1.564v1.346l-1.564-0.001v6.396c0,0.34,0.116,0.569,0.348,0.686
			c0.128,0.066,0.341,0.101,0.641,0.101c0.08,0,0.165-0.002,0.256-0.005c0.091-0.005,0.198-0.016,0.319-0.031v1.307
			c-0.189,0.057-0.385,0.095-0.59,0.119c-0.205,0.025-0.425,0.037-0.663,0.037c-0.768,0-1.29-0.195-1.564-0.59
			c-0.274-0.393-0.411-0.904-0.411-1.533v-6.485h-1.327v-1.345h1.327V627.039z"/>
		<path d="M-5.608,629.774v6.504c0,0.5,0.077,0.91,0.232,1.227c0.285,0.586,0.816,0.877,1.595,0.877c1.116,0,1.877-0.512,2.28-1.536
			c0.22-0.548,0.33-1.301,0.33-2.259v-4.813h1.646v9.797h-1.556l0.019-1.445c-0.21,0.373-0.47,0.688-0.782,0.943
			c-0.616,0.512-1.364,0.769-2.244,0.769c-1.371,0-2.304-0.466-2.801-1.4c-0.27-0.499-0.404-1.167-0.404-2.003v-6.66H-5.608z"/>
		<path d="M8.904,630.077c0.292,0.183,0.623,0.502,0.993,0.96v-4.948h1.583v13.482H9.998v-1.362
			c-0.383,0.604-0.835,1.04-1.357,1.309c-0.523,0.269-1.121,0.402-1.796,0.402c-1.087,0-2.029-0.459-2.825-1.376
			c-0.795-0.919-1.193-2.14-1.193-3.665c0-1.427,0.363-2.663,1.088-3.709c0.726-1.047,1.763-1.569,3.112-1.569
			C7.774,629.601,8.4,629.76,8.904,630.077z M5.228,637.423c0.443,0.707,1.153,1.061,2.13,1.061c0.758,0,1.382-0.327,1.871-0.982
			c0.488-0.656,0.733-1.598,0.733-2.822c0-1.238-0.252-2.154-0.756-2.75c-0.503-0.594-1.125-0.892-1.865-0.892
			c-0.826,0-1.495,0.317-2.007,0.95c-0.512,0.636-0.769,1.568-0.769,2.801C4.564,635.837,4.785,636.714,5.228,637.423z"/>
		<path d="M20.422,629.774h1.82c-0.232,0.629-0.747,2.063-1.546,4.303c-0.598,1.684-1.098,3.056-1.5,4.118
			c-0.951,2.497-1.621,4.021-2.01,4.571c-0.39,0.548-1.061,0.821-2.011,0.821c-0.231,0-0.41-0.009-0.535-0.026
			c-0.125-0.018-0.279-0.053-0.461-0.102v-1.5c0.286,0.079,0.493,0.129,0.621,0.146c0.128,0.019,0.241,0.027,0.338,0.027
			c0.304,0,0.528-0.051,0.671-0.15c0.143-0.102,0.263-0.224,0.361-0.37c0.03-0.049,0.14-0.298,0.329-0.748
			c0.188-0.45,0.325-0.785,0.411-1.005l-3.623-10.086h1.867l2.625,7.98L20.422,629.774z"/>
	</g>
	<g display="inline">
		<path d="M29.069,626.011h2.055l4.877,13.438h-1.994l-1.403-4.024h-5.272l-1.458,4.024h-1.867L29.069,626.011z M32.088,633.941
			l-2.069-5.938l-2.15,5.938H32.088z"/>
		<path d="M37.381,625.965h1.601v4.876c0.361-0.471,0.793-0.828,1.295-1.075s1.047-0.37,1.635-0.37c1.225,0,2.218,0.419,2.98,1.257
			c0.762,0.839,1.144,2.076,1.144,3.71c0,1.549-0.376,2.837-1.13,3.859c-0.753,1.025-1.797,1.538-3.131,1.538
			c-0.747,0-1.377-0.181-1.892-0.539c-0.306-0.214-0.634-0.555-0.983-1.025v1.253h-1.518V625.965z M43.677,637.245
			c0.444-0.709,0.666-1.642,0.666-2.801c0-1.03-0.222-1.884-0.666-2.561c-0.444-0.678-1.097-1.016-1.96-1.016
			c-0.752,0-1.412,0.277-1.978,0.832c-0.566,0.556-0.849,1.47-0.849,2.744c0,0.922,0.116,1.668,0.349,2.242
			c0.435,1.08,1.245,1.619,2.433,1.619C42.564,638.306,43.233,637.95,43.677,637.245z"/>
		<path d="M48.077,629.651h1.564v1.693c0.128-0.331,0.442-0.732,0.942-1.203c0.5-0.475,1.077-0.71,1.729-0.71
			c0.03,0,0.082,0.003,0.155,0.009c0.074,0.007,0.198,0.018,0.375,0.037v1.737c-0.098-0.018-0.188-0.03-0.27-0.036
			c-0.083-0.006-0.173-0.009-0.271-0.009c-0.829,0-1.467,0.267-1.912,0.8c-0.445,0.534-0.667,1.147-0.667,1.845v5.635h-1.647
			V629.651z"/>
		<path d="M61.463,630.628c0.865,0.842,1.299,2.079,1.299,3.711c0,1.579-0.382,2.884-1.145,3.913
			c-0.763,1.03-1.947,1.544-3.552,1.544c-1.338,0-2.401-0.455-3.188-1.366c-0.787-0.91-1.181-2.134-1.181-3.67
			c0-1.645,0.416-2.954,1.245-3.929c0.83-0.977,1.944-1.464,3.343-1.464C59.537,629.367,60.597,629.788,61.463,630.628z
			 M60.44,637.14c0.401-0.824,0.602-1.743,0.602-2.754c0-0.914-0.145-1.657-0.434-2.23c-0.458-0.901-1.248-1.352-2.37-1.352
			c-0.995,0-1.719,0.385-2.171,1.152c-0.452,0.767-0.679,1.691-0.679,2.777c0,1.041,0.227,1.91,0.679,2.604
			c0.452,0.695,1.17,1.042,2.153,1.042C59.299,638.379,60.039,637.966,60.44,637.14z"/>
		<path d="M70.128,633.521c0.378-0.051,0.632-0.209,0.76-0.476c0.073-0.147,0.109-0.357,0.109-0.634c0-0.563-0.2-0.972-0.598-1.227
			c-0.398-0.253-0.97-0.381-1.712-0.381c-0.857,0-1.466,0.233-1.826,0.699c-0.201,0.257-0.332,0.641-0.393,1.148h-1.536
			c0.03-1.211,0.421-2.053,1.174-2.527c0.753-0.473,1.625-0.71,2.618-0.71c1.15,0,2.086,0.219,2.805,0.658
			c0.712,0.439,1.069,1.123,1.069,2.049v5.646c0,0.17,0.035,0.308,0.105,0.411c0.07,0.104,0.218,0.154,0.444,0.154
			c0.073,0,0.156-0.003,0.247-0.013c0.092-0.008,0.189-0.022,0.293-0.041v1.216c-0.256,0.074-0.451,0.119-0.585,0.138
			c-0.134,0.018-0.317,0.027-0.548,0.027c-0.568,0-0.979-0.201-1.235-0.604c-0.135-0.213-0.229-0.516-0.284-0.906
			c-0.336,0.439-0.817,0.821-1.445,1.145c-0.628,0.322-1.32,0.484-2.077,0.484c-0.909,0-1.651-0.275-2.227-0.827
			s-0.865-1.24-0.865-2.069c0-0.908,0.284-1.61,0.851-2.109c0.567-0.501,1.311-0.809,2.232-0.924L70.128,633.521z M66.661,637.968
			c0.348,0.274,0.76,0.411,1.235,0.411c0.58,0,1.14-0.135,1.684-0.402c0.915-0.444,1.372-1.171,1.372-2.183v-1.324
			c-0.202,0.128-0.46,0.235-0.776,0.321c-0.316,0.085-0.627,0.146-0.932,0.183l-0.995,0.129c-0.596,0.078-1.045,0.204-1.346,0.373
			c-0.509,0.287-0.764,0.743-0.764,1.37C66.14,637.32,66.314,637.694,66.661,637.968z"/>
		<path d="M80.774,629.953c0.292,0.183,0.623,0.504,0.993,0.961v-4.949h1.583v13.484h-1.482v-1.362
			c-0.383,0.602-0.836,1.038-1.358,1.307c-0.522,0.27-1.121,0.402-1.795,0.402c-1.088,0-2.03-0.457-2.826-1.376
			c-0.795-0.918-1.193-2.14-1.193-3.663c0-1.428,0.363-2.664,1.088-3.711c0.726-1.045,1.764-1.568,3.112-1.568
			C79.644,629.478,80.27,629.636,80.774,629.953z M77.098,637.3c0.443,0.708,1.153,1.061,2.13,1.061
			c0.759,0,1.382-0.327,1.871-0.983c0.488-0.656,0.733-1.597,0.733-2.823c0-1.237-0.252-2.153-0.755-2.748
			c-0.504-0.595-1.126-0.892-1.866-0.892c-0.825,0-1.495,0.316-2.007,0.952c-0.512,0.633-0.769,1.566-0.769,2.798
			C76.434,635.714,76.655,636.592,77.098,637.3z"/>
	</g>
</g>
<g display="none" opacity="0.8">
	<path display="inline" d="M23.181,641.563h1.231l2.921,8.051h-1.195l-0.84-2.412h-3.158l-0.874,2.412H20.15L23.181,641.563z
		 M24.989,646.314l-1.239-3.558l-1.288,3.558H24.989z"/>
	<path display="inline" d="M28.406,643.772h0.965v0.777c0.198-0.266,0.414-0.473,0.648-0.619c0.333-0.22,0.725-0.328,1.175-0.328
		c0.667,0,1.232,0.253,1.698,0.764c0.465,0.51,0.698,1.238,0.698,2.184c0,1.278-0.335,2.192-1.007,2.74
		c-0.425,0.347-0.92,0.52-1.485,0.52c-0.444,0-0.816-0.096-1.117-0.289c-0.176-0.109-0.373-0.298-0.589-0.565v2.998h-0.986V643.772z
		 M32.118,648.372c0.306-0.386,0.459-0.962,0.459-1.729c0-0.467-0.068-0.87-0.204-1.207c-0.257-0.646-0.726-0.968-1.408-0.968
		c-0.686,0-1.155,0.34-1.408,1.022c-0.136,0.367-0.203,0.831-0.203,1.394c0,0.452,0.067,0.838,0.203,1.155
		c0.257,0.606,0.726,0.91,1.408,0.91C31.427,648.95,31.812,648.758,32.118,648.372z"/>
	<path display="inline" d="M38.179,646.061c0.226-0.028,0.378-0.123,0.455-0.284c0.044-0.087,0.065-0.214,0.065-0.379
		c0-0.338-0.119-0.582-0.358-0.734c-0.239-0.152-0.581-0.229-1.025-0.229c-0.514,0-0.879,0.14-1.094,0.419
		c-0.121,0.154-0.199,0.384-0.235,0.688h-0.921c0.019-0.726,0.253-1.23,0.704-1.514c0.45-0.285,0.973-0.426,1.568-0.426
		c0.69,0,1.25,0.131,1.681,0.395c0.427,0.263,0.64,0.672,0.64,1.227v3.381c0,0.104,0.021,0.185,0.063,0.247
		c0.042,0.062,0.131,0.093,0.266,0.093c0.044,0,0.093-0.002,0.148-0.009c0.055-0.005,0.113-0.013,0.176-0.024v0.729
		c-0.153,0.044-0.27,0.071-0.35,0.083c-0.082,0.01-0.19,0.016-0.329,0.016c-0.34,0-0.587-0.121-0.74-0.362
		c-0.08-0.128-0.137-0.308-0.17-0.542c-0.201,0.264-0.489,0.492-0.866,0.686c-0.376,0.193-0.791,0.289-1.244,0.289
		c-0.544,0-0.989-0.164-1.334-0.494s-0.518-0.744-0.518-1.24c0-0.543,0.169-0.965,0.509-1.264c0.34-0.3,0.786-0.484,1.338-0.553
		L38.179,646.061z M36.102,648.726c0.208,0.165,0.455,0.247,0.74,0.247c0.347,0,0.683-0.08,1.008-0.241
		c0.548-0.268,0.822-0.701,0.822-1.308v-0.793c-0.121,0.075-0.275,0.142-0.465,0.191c-0.189,0.052-0.375,0.088-0.557,0.11
		l-0.597,0.078c-0.357,0.046-0.626,0.121-0.806,0.223c-0.305,0.172-0.458,0.445-0.458,0.819
		C35.79,648.338,35.894,648.563,36.102,648.726z"/>
	<path display="inline" d="M41.606,643.743h0.937v1.015c0.077-0.197,0.265-0.438,0.564-0.721c0.299-0.282,0.645-0.425,1.036-0.425
		c0.018,0,0.049,0.002,0.093,0.007c0.044,0.002,0.119,0.01,0.225,0.021v1.041c-0.059-0.01-0.112-0.018-0.162-0.021
		s-0.103-0.005-0.162-0.005c-0.496,0-0.878,0.16-1.145,0.479c-0.267,0.32-0.4,0.688-0.4,1.104v3.377h-0.986V643.743z"/>
	<path display="inline" d="M45.816,642.105h0.997v1.638h0.938v0.807h-0.938v3.83c0,0.205,0.07,0.342,0.208,0.411
		c0.077,0.04,0.205,0.061,0.384,0.061c0.048,0,0.099-0.001,0.153-0.003c0.055-0.004,0.119-0.008,0.192-0.02v0.785
		c-0.113,0.032-0.231,0.056-0.354,0.07c-0.123,0.014-0.255,0.021-0.397,0.021c-0.46,0-0.773-0.116-0.938-0.354
		c-0.165-0.235-0.246-0.541-0.246-0.918v-3.885h-0.794v-0.807h0.794V642.105z"/>
	<path display="inline" d="M49.04,643.743h0.975v0.834c0.234-0.287,0.446-0.499,0.636-0.631c0.325-0.222,0.693-0.334,1.106-0.334
		c0.468,0,0.844,0.115,1.129,0.346c0.161,0.131,0.307,0.326,0.438,0.58c0.22-0.314,0.477-0.547,0.773-0.697
		c0.295-0.152,0.628-0.229,0.997-0.229c0.789,0,1.326,0.286,1.611,0.856c0.153,0.306,0.23,0.719,0.23,1.237v3.908h-1.024v-4.078
		c0-0.391-0.098-0.658-0.294-0.805c-0.195-0.147-0.434-0.221-0.715-0.221c-0.387,0-0.72,0.13-1,0.391
		c-0.28,0.259-0.419,0.691-0.419,1.299v3.414h-1.003v-3.832c0-0.397-0.048-0.688-0.143-0.871c-0.15-0.273-0.43-0.41-0.838-0.41
		c-0.373,0-0.711,0.145-1.017,0.432c-0.305,0.29-0.458,0.813-0.458,1.568v3.113H49.04V643.743z"/>
	<path display="inline" d="M62.316,643.905c0.388,0.196,0.685,0.449,0.888,0.759c0.196,0.297,0.327,0.642,0.392,1.036
		c0.058,0.271,0.087,0.702,0.087,1.295h-4.268c0.018,0.596,0.157,1.074,0.418,1.436c0.261,0.361,0.665,0.542,1.212,0.542
		c0.511,0,0.919-0.17,1.224-0.513c0.17-0.197,0.291-0.427,0.362-0.688h0.97c-0.025,0.216-0.11,0.456-0.255,0.722
		c-0.144,0.265-0.305,0.48-0.483,0.649c-0.297,0.292-0.665,0.489-1.104,0.591c-0.236,0.059-0.502,0.089-0.799,0.089
		c-0.727,0-1.342-0.267-1.847-0.799c-0.504-0.53-0.757-1.274-0.757-2.232c0-0.942,0.254-1.709,0.763-2.296
		c0.508-0.588,1.173-0.883,1.993-0.883C61.527,643.612,61.928,643.71,62.316,643.905z M62.67,646.21
		c-0.04-0.428-0.132-0.769-0.277-1.024c-0.268-0.475-0.716-0.713-1.342-0.713c-0.449,0-0.826,0.164-1.13,0.491
		c-0.305,0.326-0.466,0.742-0.484,1.246H62.67z"/>
	<path display="inline" d="M65.236,643.745h0.938v0.832c0.277-0.345,0.571-0.59,0.882-0.74c0.31-0.148,0.655-0.225,1.035-0.225
		c0.833,0,1.396,0.291,1.688,0.872c0.161,0.317,0.241,0.772,0.241,1.364v3.766h-1.003v-3.7c0-0.357-0.053-0.647-0.158-0.865
		c-0.176-0.366-0.493-0.548-0.954-0.548c-0.234,0-0.426,0.023-0.576,0.07c-0.271,0.082-0.508,0.24-0.712,0.483
		c-0.165,0.193-0.271,0.394-0.321,0.599c-0.049,0.207-0.074,0.502-0.074,0.886v3.075h-0.986V643.745z"/>
	<path display="inline" d="M71.978,642.105h0.997v1.64h0.937v0.805h-0.937v3.83c0,0.205,0.069,0.342,0.208,0.411
		c0.077,0.04,0.205,0.061,0.383,0.061c0.047,0,0.099-0.001,0.154-0.003c0.054-0.004,0.119-0.008,0.191-0.02v0.785
		c-0.113,0.032-0.231,0.056-0.354,0.07c-0.122,0.014-0.255,0.021-0.397,0.021c-0.46,0-0.772-0.116-0.937-0.354
		c-0.165-0.235-0.247-0.541-0.247-0.918v-3.885h-0.795v-0.805h0.795V642.105z"/>
	<path display="inline" d="M75.788,647.771c0.03,0.329,0.114,0.581,0.251,0.757c0.254,0.317,0.694,0.477,1.32,0.477
		c0.373,0,0.701-0.079,0.984-0.238c0.283-0.158,0.425-0.404,0.425-0.736c0-0.253-0.113-0.445-0.34-0.576
		c-0.145-0.08-0.431-0.173-0.857-0.279l-0.796-0.197c-0.509-0.124-0.884-0.264-1.125-0.416c-0.431-0.268-0.646-0.636-0.646-1.107
		c0-0.556,0.203-1.006,0.608-1.348c0.405-0.344,0.951-0.517,1.636-0.517c0.896,0,1.542,0.261,1.938,0.778
		c0.249,0.329,0.369,0.683,0.361,1.064h-0.932c-0.019-0.222-0.099-0.424-0.241-0.606c-0.232-0.257-0.634-0.387-1.206-0.387
		c-0.381,0-0.67,0.071-0.867,0.214c-0.196,0.143-0.294,0.329-0.294,0.563c0,0.254,0.128,0.458,0.387,0.611
		c0.149,0.091,0.369,0.171,0.659,0.24l0.665,0.159c0.721,0.172,1.206,0.338,1.451,0.499c0.384,0.252,0.575,0.648,0.575,1.189
		c0,0.521-0.2,0.973-0.602,1.353s-1.013,0.571-1.833,0.571c-0.885,0-1.511-0.199-1.878-0.596s-0.565-0.887-0.59-1.472H75.788z"/>
</g>
<path display="none" opacity="0.8" d="M2.349,621.376c0,0-11.958,0.934-15.253-2.771c0,0,5.633,2.773,14.203,1.59v-2.283
	l4.383-4.134l3.754,3.703v3.649l2.479,0.082v-11.394l9.42,0.132v13.515l1.867-0.728v-18.784l8.196-1.305v17.439
	c22.13-0.99,41.385-10.523,41.385-10.523l-3.267-3.647c0.204-0.232,0.554-0.582,1.137-0.174c3.967,2.741,4.579,2.653,4.754,2.565
	c0.175-0.087,2.566-0.962,2.946,0c0.379,0.963-2.567,1.926-2.741,2.071c-0.175,0.146-1.517,4.579-1.692,4.958
	s-0.817,0.379-0.817,0.379l0.117-4.666c-20.384,9.741-42.873,10.236-42.873,10.236v-17.409l-6.096,0.971v18.606l-3.966,1.546
	v-14.016l-7.321-0.103v11.414l-4.579-0.15v-4.227l-2.721-2.684l-3.316,3.128V621.376z"/>
<g display="none">
	
		<image display="inline" overflow="visible" width="756" height="506" xlink:href="B01F010C.png"  transform="matrix(0.24 0 0 0.24 -62.3184 566.3125)">
	</image>
</g>
<g>
	<g>
		<path fill="#6D6D6D" d="M68.574,237.385c0.253,4.651,1.312,8.421,3.172,11.327c3.549,5.434,9.803,8.143,18.755,8.143
			c4.014,0,7.671-0.591,10.965-1.793c6.379-2.3,9.567-6.426,9.567-12.371c0-4.47-1.351-7.652-4.053-9.545
			c-2.739-1.859-7.025-3.479-12.865-4.86l-10.759-2.509c-7.025-1.631-11.995-3.437-14.914-5.414
			c-5.044-3.418-7.566-8.535-7.566-15.341c0-7.362,2.477-13.408,7.438-18.129c4.959-4.73,11.978-7.087,21.066-7.087
			c8.358,0,15.461,2.07,21.307,6.223c5.846,4.146,8.772,10.773,8.772,19.879h-10.437c-0.536-4.376-1.674-7.741-3.424-10.088
			c-3.243-4.275-8.75-6.414-16.528-6.414c-6.277,0-10.789,1.37-13.531,4.131c-2.746,2.743-4.119,5.947-4.119,9.59
			c0,4.015,1.62,6.957,4.866,8.816c2.123,1.191,6.938,2.672,14.43,4.465l11.138,2.622c5.373,1.261,9.515,2.99,12.434,5.187
			c5.043,3.83,7.569,9.392,7.569,16.682c0,9.078-3.219,15.569-9.66,19.473c-6.436,3.911-13.919,5.854-22.442,5.854
			c-9.94,0-17.719-2.597-23.344-7.809c-5.626-5.168-8.38-12.181-8.271-21.03H68.574z"/>
		<path fill="#6D6D6D" d="M140.375,187.39h10.155v16.684h9.542v8.203h-9.542v38.996c0,2.086,0.709,3.484,2.121,4.195
			c0.783,0.397,2.084,0.606,3.904,0.606c0.482,0,1.007-0.011,1.564-0.036c0.557-0.022,1.209-0.084,1.953-0.184v7.976
			c-1.152,0.331-2.353,0.581-3.597,0.721c-1.249,0.147-2.597,0.226-4.045,0.226c-4.689,0-7.867-1.202-9.541-3.605
			c-1.677-2.399-2.514-5.503-2.514-9.336v-39.559h-8.088v-8.203h8.088V187.39z"/>
		<path fill="#6D6D6D" d="M182.325,204.073v39.673c0,3.056,0.474,5.54,1.416,7.474c1.738,3.574,4.981,5.355,9.728,5.355
			c6.808,0,11.444-3.121,13.91-9.369c1.339-3.352,2.01-7.944,2.01-13.788v-29.345h10.041v59.757h-9.484l0.11-8.815
			c-1.278,2.268-2.868,4.181-4.762,5.748c-3.764,3.125-8.32,4.688-13.687,4.688c-8.358,0-14.053-2.842-17.081-8.529
			c-1.646-3.057-2.463-7.129-2.463-12.229v-40.619H182.325z"/>
		<path fill="#6D6D6D" d="M270.835,205.916c1.775,1.118,3.797,3.064,6.058,5.858v-30.184h9.651v82.239h-9.041v-8.31
			c-2.332,3.675-5.093,6.344-8.279,7.98c-3.186,1.632-6.837,2.447-10.949,2.447c-6.632,0-12.374-2.793-17.228-8.396
			c-4.857-5.596-7.284-13.044-7.284-22.342c0-8.707,2.216-16.248,6.641-22.625c4.429-6.387,10.756-9.571,18.982-9.571
			C263.941,203.015,267.755,203.983,270.835,205.916z M248.417,250.719c2.701,4.314,7.031,6.47,12.99,6.47
			c4.624,0,8.426-1.997,11.404-6c2.979-3.988,4.471-9.73,4.471-17.205c0-7.558-1.534-13.145-4.607-16.771
			c-3.071-3.628-6.865-5.438-11.382-5.438c-5.033,0-9.113,1.936-12.239,5.803c-3.127,3.868-4.69,9.559-4.69,17.069
			C244.364,241.048,245.713,246.407,248.417,250.719z"/>
		<path fill="#6D6D6D" d="M341.078,204.073h11.102c-1.415,3.836-4.553,12.578-9.431,26.236c-3.645,10.273-6.695,18.647-9.151,25.116
			c-5.798,15.241-9.881,24.532-12.264,27.885c-2.375,3.34-6.465,5.016-12.262,5.016c-1.409,0-2.499-0.062-3.258-0.167
			c-0.763-0.114-1.701-0.323-2.817-0.621v-9.147c1.744,0.482,3.007,0.78,3.787,0.899c0.781,0.114,1.468,0.168,2.061,0.168
			c1.858,0,3.222-0.311,4.095-0.925c0.873-0.612,1.605-1.364,2.201-2.251c0.188-0.305,0.852-1.821,2.004-4.568
			c1.152-2.75,1.986-4.789,2.504-6.121l-22.09-61.52h11.381l16.01,48.672L341.078,204.073z"/>
	</g>
	<g>
		<path fill="#525453" d="M393.817,181.118h12.535l29.744,81.96h-12.159l-8.556-24.549h-32.156l-8.89,24.549h-11.381
			L393.817,181.118z M412.227,229.493l-12.617-36.204l-13.112,36.204H412.227z"/>
		<path fill="#525453" d="M444.507,180.834h9.765v29.744c2.201-2.865,4.836-5.044,7.898-6.553c3.061-1.512,6.384-2.269,9.967-2.269
			c7.468,0,13.529,2.561,18.18,7.684c4.645,5.109,6.971,12.65,6.971,22.619c0,9.453-2.298,17.289-6.89,23.539
			c-4.589,6.247-10.959,9.372-19.098,9.372c-4.556,0-8.4-1.088-11.539-3.287c-1.868-1.303-3.862-3.382-5.989-6.252v7.646h-9.264
			V180.834z M482.905,249.636c2.709-4.317,4.062-10.013,4.062-17.075c0-6.288-1.353-11.493-4.062-15.628
			c-2.701-4.127-6.689-6.188-11.948-6.188c-4.592,0-8.615,1.69-12.063,5.074c-3.455,3.383-5.182,8.97-5.182,16.741
			c0,5.609,0.709,10.171,2.129,13.668c2.647,6.58,7.597,9.877,14.833,9.877C476.125,256.105,480.204,253.947,482.905,249.636z"/>
		<path fill="#525453" d="M509.742,203.318h9.538v10.321c0.784-2.01,2.702-4.451,5.749-7.331c3.052-2.88,6.563-4.327,10.544-4.327
			c0.191,0,0.503,0.025,0.949,0.056c0.447,0.042,1.21,0.112,2.288,0.226v10.608c-0.592-0.118-1.141-0.191-1.647-0.232
			c-0.497-0.037-1.048-0.054-1.644-0.054c-5.059,0-8.945,1.631-11.661,4.882c-2.716,3.261-4.071,7.004-4.071,11.241v34.37h-10.045
			V203.318z"/>
		<path fill="#525453" d="M591.385,209.286c5.277,5.128,7.919,12.675,7.919,22.638c0,9.616-2.329,17.575-6.981,23.853
			c-4.651,6.277-11.873,9.423-21.662,9.423c-8.162,0-14.647-2.781-19.445-8.34c-4.801-5.551-7.201-13.02-7.201-22.38
			c0-10.03,2.528-18.017,7.588-23.968c5.059-5.944,11.858-8.922,20.39-8.922C579.637,201.59,586.103,204.161,591.385,209.286z
			 M585.149,248.999c2.445-5.033,3.668-10.637,3.668-16.809c0-5.563-0.886-10.094-2.65-13.59c-2.796-5.498-7.615-8.251-14.452-8.251
			c-6.072,0-10.482,2.342-13.243,7.023c-2.757,4.683-4.136,10.327-4.136,16.944c0,6.354,1.379,11.645,4.136,15.878
			c2.761,4.243,7.132,6.355,13.126,6.355C578.184,256.551,582.701,254.037,585.149,248.999z"/>
		<path fill="#525453" d="M644.231,226.915c2.305-0.297,3.851-1.258,4.63-2.895c0.447-0.894,0.674-2.186,0.674-3.861
			c0-3.439-1.218-5.932-3.651-7.479c-2.433-1.547-5.911-2.33-10.441-2.33c-5.232,0-8.946,1.425-11.135,4.265
			c-1.224,1.567-2.021,3.908-2.394,7.013h-9.375c0.188-7.386,2.573-12.532,7.163-15.417c4.588-2.892,9.91-4.334,15.964-4.334
			c7.022,0,12.724,1.334,17.108,4.014c4.348,2.682,6.519,6.843,6.519,12.497v34.422c0,1.05,0.214,1.886,0.643,2.515
			c0.426,0.631,1.329,0.948,2.705,0.948c0.447,0,0.95-0.024,1.51-0.092c0.554-0.053,1.152-0.13,1.783-0.235v7.415
			c-1.563,0.445-2.755,0.727-3.57,0.833c-0.822,0.107-1.933,0.172-3.348,0.172c-3.46,0-5.97-1.228-7.534-3.686
			c-0.816-1.301-1.393-3.141-1.728-5.523c-2.046,2.676-4.985,5.006-8.817,6.971c-3.83,1.971-8.052,2.965-12.662,2.965
			c-5.544,0-10.071-1.685-13.585-5.05c-3.517-3.354-5.277-7.563-5.277-12.615c0-5.54,1.733-9.827,5.191-12.875
			c3.463-3.046,7.996-4.927,13.615-5.634L644.231,226.915z M623.084,254.048c2.125,1.67,4.631,2.503,7.531,2.503
			c3.536,0,6.957-0.821,10.265-2.452c5.582-2.718,8.372-7.148,8.372-13.313v-8.078c-1.225,0.782-2.799,1.437-4.731,1.96
			c-1.93,0.526-3.821,0.894-5.679,1.121l-6.07,0.78c-3.642,0.481-6.375,1.238-8.209,2.273c-3.106,1.746-4.658,4.533-4.658,8.357
			C619.904,250.096,620.965,252.37,623.084,254.048z"/>
		<path fill="#525453" d="M709.156,205.164c1.774,1.113,3.797,3.073,6.057,5.859v-30.189h9.648v82.244h-9.034v-8.315
			c-2.336,3.689-5.096,6.344-8.282,7.981c-3.187,1.631-6.84,2.455-10.947,2.455c-6.631,0-12.376-2.801-17.23-8.398
			c-4.857-5.598-7.283-13.044-7.283-22.348c0-8.701,2.218-16.239,6.64-22.62c4.428-6.377,10.756-9.57,18.981-9.57
			C702.262,202.263,706.08,203.234,709.156,205.164z M686.738,249.964c2.701,4.323,7.031,6.467,12.986,6.467
			c4.625,0,8.431-1.992,11.412-5.99c2.974-4.003,4.466-9.731,4.466-17.211c0-7.553-1.533-13.14-4.604-16.767
			c-3.077-3.627-6.864-5.439-11.381-5.439c-5.036,0-9.115,1.942-12.243,5.802c-3.126,3.866-4.69,9.564-4.69,17.068
			C682.685,240.296,684.035,245.652,686.738,249.964z"/>
	</g>
	<g>
		<path fill="#6D6D6D" d="M357.906,275.972h7.508l17.817,49.096h-7.281l-5.128-14.699h-19.261l-5.321,14.699h-6.822L357.906,275.972
			z M368.934,304.947l-7.558-21.685l-7.855,21.685H368.934z"/>
		<path fill="#6D6D6D" d="M389.776,289.44h5.885v4.745c1.203-1.626,2.522-2.884,3.952-3.774c2.033-1.341,4.422-2.001,7.17-2.001
			c4.065,0,7.519,1.553,10.356,4.657c2.836,3.114,4.256,7.547,4.256,13.322c0,7.791-2.048,13.358-6.14,16.699
			c-2.597,2.127-5.619,3.182-9.063,3.182c-2.707,0-4.976-0.596-6.811-1.776c-1.074-0.665-2.269-1.81-3.588-3.435v18.277h-6.019
			V289.44z M412.412,317.496c1.863-2.347,2.799-5.865,2.799-10.542c0-2.854-0.414-5.306-1.242-7.354
			c-1.561-3.944-4.428-5.921-8.583-5.921c-4.181,0-7.043,2.091-8.585,6.256c-0.829,2.227-1.242,5.061-1.242,8.492
			c0,2.757,0.413,5.108,1.242,7.045c1.564,3.697,4.429,5.552,8.585,5.552C408.204,321.023,410.542,319.843,412.412,317.496z"/>
		<path fill="#6D6D6D" d="M449.376,303.405c1.385-0.173,2.305-0.752,2.778-1.734c0.264-0.54,0.399-1.309,0.399-2.31
			c0-2.061-0.729-3.556-2.186-4.485c-1.459-0.922-3.54-1.386-6.254-1.386c-3.136,0-5.36,0.846-6.673,2.547
			c-0.736,0.94-1.209,2.335-1.432,4.195h-5.617c0.113-4.421,1.542-7.5,4.291-9.233c2.749-1.727,5.936-2.589,9.563-2.589
			c4.205,0,7.623,0.796,10.247,2.398c2.608,1.61,3.907,4.104,3.907,7.485v20.628c0,0.623,0.128,1.118,0.386,1.5
			c0.254,0.387,0.796,0.57,1.621,0.57c0.269,0,0.565-0.021,0.902-0.059c0.333-0.03,0.691-0.077,1.069-0.15v4.451
			c-0.935,0.273-1.65,0.435-2.142,0.493c-0.488,0.078-1.155,0.103-2.004,0.103c-2.072,0-3.576-0.729-4.508-2.192
			c-0.491-0.786-0.839-1.889-1.039-3.311c-1.227,1.595-2.987,2.99-5.283,4.167c-2.29,1.181-4.82,1.776-7.582,1.776
			c-3.323,0-6.036-1.008-8.138-3.025c-2.106-2.014-3.16-4.532-3.16-7.559c0-3.317,1.036-5.885,3.108-7.707
			c2.073-1.83,4.792-2.948,8.154-3.371L449.376,303.405z M436.711,319.653c1.269,1.006,2.772,1.507,4.512,1.507
			c2.114,0,4.166-0.487,6.149-1.471c3.345-1.626,5.012-4.284,5.012-7.975v-4.838c-0.736,0.47-1.68,0.859-2.835,1.174
			c-1.155,0.315-2.29,0.534-3.403,0.669l-3.633,0.462c-2.177,0.292-3.818,0.746-4.917,1.372c-1.858,1.041-2.791,2.714-2.791,4.997
			C434.805,317.288,435.443,318.656,436.711,319.653z"/>
		<path fill="#6D6D6D" d="M470.275,289.272h5.711v6.188c0.474-1.208,1.615-2.675,3.446-4.401c1.825-1.724,3.934-2.592,6.316-2.592
			c0.109,0,0.303,0.011,0.565,0.037c0.269,0.017,0.727,0.063,1.37,0.137v6.349c-0.354-0.073-0.685-0.114-0.986-0.131
			c-0.297-0.03-0.627-0.036-0.982-0.036c-3.031,0-5.36,0.977-6.982,2.917c-1.629,1.954-2.442,4.201-2.442,6.736v20.591h-6.016
			V289.272z"/>
		<path fill="#6D6D6D" d="M495.951,279.279h6.084v9.993h5.715v4.913h-5.715v23.358c0,1.258,0.423,2.091,1.269,2.508
			c0.468,0.244,1.245,0.37,2.341,0.37c0.289,0,0.602-0.006,0.935-0.024c0.334-0.012,0.724-0.053,1.17-0.105v4.775
			c-0.691,0.201-1.408,0.346-2.156,0.44c-0.747,0.084-1.554,0.131-2.424,0.131c-2.808,0-4.71-0.722-5.711-2.154
			c-1.003-1.442-1.507-3.308-1.507-5.601v-23.698h-4.848v-4.913h4.848V279.279z"/>
		<path fill="#6D6D6D" d="M515.615,289.272h5.949v5.074c1.424-1.75,2.716-3.037,3.875-3.835c1.983-1.358,4.234-2.044,6.75-2.044
			c2.851,0,5.146,0.71,6.885,2.107c0.98,0.805,1.874,1.984,2.677,3.543c1.334-1.914,2.904-3.34,4.708-4.261
			c1.806-0.919,3.836-1.39,6.081-1.39c4.816,0,8.091,1.746,9.828,5.211c0.938,1.877,1.405,4.396,1.405,7.558v23.831h-6.25v-24.866
			c0-2.383-0.595-4.02-1.787-4.913c-1.194-0.889-2.644-1.334-4.36-1.334c-2.364,0-4.398,0.785-6.098,2.37
			c-1.71,1.584-2.559,4.223-2.559,7.922v20.821h-6.12v-23.36c0-2.431-0.289-4.197-0.864-5.317c-0.917-1.667-2.62-2.502-5.116-2.502
			c-2.272,0-4.342,0.882-6.2,2.639c-1.861,1.763-2.791,4.944-2.791,9.555v18.986h-6.015V289.272z"/>
		<path fill="#6D6D6D" d="M596.587,290.261c2.371,1.191,4.172,2.739,5.414,4.626c1.194,1.808,1.993,3.914,2.392,6.321
			c0.352,1.643,0.533,4.277,0.533,7.879H578.89c0.107,3.646,0.961,6.569,2.552,8.773c1.593,2.203,4.06,3.3,7.395,3.3
			c3.118,0,5.604-1.047,7.462-3.127c1.039-1.208,1.775-2.603,2.21-4.201h5.914c-0.155,1.317-0.673,2.784-1.551,4.396
			c-0.882,1.615-1.865,2.938-2.948,3.962c-1.813,1.782-4.057,2.989-6.734,3.616c-1.435,0.351-3.061,0.537-4.875,0.537
			c-4.432,0-8.184-1.62-11.26-4.874c-3.079-3.241-4.612-7.778-4.612-13.615c0-5.745,1.547-10.417,4.645-14.002
			c3.101-3.585,7.156-5.384,12.156-5.384C591.769,288.468,594.216,289.064,596.587,290.261z M598.74,304.315
			c-0.241-2.608-0.807-4.693-1.688-6.253c-1.637-2.895-4.361-4.337-8.186-4.337c-2.74,0-5.04,0.988-6.894,2.979
			c-1.859,2.002-2.838,4.531-2.952,7.61H598.74z"/>
		<path fill="#6D6D6D" d="M614.393,289.272h5.711v5.074c1.694-2.084,3.49-3.591,5.384-4.51c1.891-0.91,3.996-1.369,6.316-1.369
			c5.081,0,8.511,1.768,10.294,5.32c0.98,1.935,1.469,4.709,1.469,8.32v22.959h-6.113v-22.562c0-2.179-0.322-3.941-0.974-5.283
			c-1.063-2.222-3.005-3.335-5.813-3.335c-1.426,0-2.594,0.143-3.508,0.435c-1.65,0.489-3.097,1.473-4.345,2.942
			c-1.003,1.18-1.655,2.399-1.956,3.658c-0.298,1.255-0.446,3.061-0.446,5.394v18.751h-6.019V289.272z"/>
		<path fill="#6D6D6D" d="M655.509,279.279h6.081v9.993h5.718v4.913h-5.718v23.357c0,1.259,0.426,2.092,1.271,2.509
			c0.467,0.244,1.248,0.37,2.34,0.37c0.29,0,0.599-0.006,0.935-0.024c0.337-0.012,0.727-0.053,1.171-0.105v4.775
			c-0.694,0.201-1.412,0.346-2.156,0.439c-0.748,0.085-1.555,0.132-2.425,0.132c-2.808,0-4.711-0.722-5.715-2.154
			c-1.004-1.442-1.503-3.308-1.503-5.602v-23.697h-4.846v-4.913h4.846V279.279z"/>
		<path fill="#6D6D6D" d="M678.746,313.832c0.185,2.007,0.697,3.553,1.537,4.611c1.545,1.942,4.228,2.914,8.049,2.914
			c2.275,0,4.273-0.484,6.003-1.453c1.73-0.973,2.591-2.467,2.591-4.499c0-1.536-0.688-2.702-2.072-3.502
			c-0.882-0.492-2.624-1.065-5.227-1.709l-4.86-1.196c-3.103-0.763-5.387-1.61-6.857-2.55c-2.627-1.626-3.94-3.87-3.94-6.743
			c0-3.393,1.233-6.132,3.704-8.228c2.479-2.091,5.798-3.135,9.977-3.135c5.464,0,9.405,1.578,11.819,4.741
			c1.513,2.012,2.249,4.169,2.204,6.485h-5.679c-0.115-1.358-0.607-2.583-1.471-3.697c-1.414-1.566-3.868-2.354-7.355-2.354
			c-2.329,0-4.092,0.436-5.289,1.299c-1.198,0.862-1.796,2.013-1.796,3.43c0,1.557,0.789,2.801,2.358,3.729
			c0.908,0.555,2.251,1.042,4.021,1.465l4.053,0.971c4.404,1.048,7.355,2.061,8.853,3.043c2.338,1.543,3.509,3.956,3.509,7.249
			c0,3.185-1.225,5.943-3.672,8.259c-2.448,2.319-6.174,3.475-11.183,3.475c-5.39,0-9.208-1.21-11.453-3.622
			c-2.242-2.424-3.448-5.414-3.604-8.983H678.746z"/>
	</g>
	<linearGradient id="SVGID_1_" gradientUnits="userSpaceOnUse" x1="137.8262" y1="106.8057" x2="694.5913" y2="106.8057">
		<stop  offset="0" style="stop-color:#92D2F3"/>
		<stop  offset="1" style="stop-color:#18C1F2"/>
	</linearGradient>
	<path fill="url(#SVGID_1_)" d="M230.854,152.858c0,0-72.929,5.696-93.027-16.902c0,0,34.359,16.916,86.625,9.695v-13.917
		l26.729-25.212l22.897,22.586v22.25l15.116,0.501V82.37l57.457,0.805v82.43l11.381-4.448V46.601l49.982-7.956v106.359
		c134.971-6.033,252.4-64.187,252.4-64.187l-19.922-22.239c1.248-1.417,3.379-3.549,6.938-1.06
		c24.19,16.718,27.927,16.181,28.991,15.652c1.068-0.532,15.655-5.874,17.966,0c2.313,5.865-15.653,11.738-16.722,12.626
		c-1.066,0.895-9.246,27.927-10.312,30.236c-1.069,2.318-4.982,2.318-4.982,2.318l0.712-28.462
		c-124.323,59.408-261.471,62.435-261.471,62.435V46.149l-37.177,5.912v113.472l-24.189,9.434V89.488l-44.646-0.624v69.612
		l-27.927-0.925v-25.771l-16.589-16.36l-20.229,19.071V152.858z"/>
</g>
</svg>
